<svg xmlns="http://www.w3.org/2000/svg" viewBox="0 0 700 450" width="700" height="450" style="background:#ffffff; font-family:-apple-system,BlinkMacSystemFont,Segoe UI,Helvetica,Arial,sans-serif;">
<text x="350" y="30" font-size="16" font-weight="bold" text-anchor="middle" fill="#111827">Pulsar Timing Power Spectral Density: Quantum Tidal Line Broadening</text>
<line x1="90" y1="380" x2="660" y2="380" stroke="#374151" stroke-width="2"/>
<line x1="90" y1="380" x2="90" y2="50" stroke="#374151" stroke-width="2"/>
<text x="375" y="430" font-size="13" font-weight="600" text-anchor="middle" fill="#374151">Frequency f [nHz] (around f0 = 48.36 nHz)</text>
<text transform="rotate(-90)" x="-215" y="30" font-size="13" font-weight="600" text-anchor="middle" fill="#374151">Power Spectral Density S(f) [arbitrary units]</text>
<polyline points="90.0,373.8 92.9,373.7 95.7,373.6 98.6,373.4 101.4,373.3 104.3,373.2 107.1,373.0 110.0,372.9 112.8,372.8 115.6,372.6 118.5,372.4 121.3,372.3 124.2,372.1 127.0,371.9 129.9,371.8 132.8,371.6 135.6,371.4 138.5,371.2 141.3,371.0 144.2,370.8 147.0,370.6 149.9,370.4 152.7,370.1 155.5,369.9 158.4,369.6 161.2,369.4 164.1,369.1 166.9,368.9 169.8,368.6 172.7,368.3 175.5,368.0 178.4,367.7 181.2,367.3 184.1,367.0 186.9,366.6 189.8,366.3 192.6,365.9 195.4,365.5 198.3,365.0 201.1,364.6 204.0,364.2 206.8,363.7 209.7,363.2 212.6,362.7 215.4,362.1 218.3,361.6 221.1,361.0 224.0,360.4 226.8,359.7 229.7,359.0 232.5,358.3 235.3,357.6 238.2,356.8 241.0,356.0 243.9,355.1 246.7,354.2 249.6,353.3 252.4,352.3 255.3,351.2 258.2,350.1 261.0,349.0 263.9,347.8 266.7,346.5 269.6,345.1 272.4,343.7 275.2,342.2 278.1,340.6 280.9,338.9 283.8,337.1 286.6,335.2 289.5,333.2 292.3,331.1 295.2,328.9 298.1,326.6 300.9,324.1 303.8,321.5 306.6,318.8 309.5,315.9 312.3,312.9 315.1,309.7 318.0,306.4 320.8,302.9 323.7,299.3 326.5,295.5 329.4,291.6 332.2,287.7 335.1,283.6 338.0,279.4 340.8,275.2 343.7,271.0 346.5,266.8 349.4,262.8 352.2,258.8 355.0,255.1 357.9,251.7 360.7,248.6 363.6,245.9 366.4,243.6 369.3,241.9 372.1,240.7 375.0,240.0 377.9,240.0 380.7,240.6 383.6,241.7 386.4,243.4 389.3,245.7 392.1,248.3 395.0,251.4 397.8,254.8 400.6,258.5 403.5,262.4 406.3,266.5 409.2,270.7 412.0,274.9 414.9,279.1 417.7,283.2 420.6,287.3 423.5,291.3 426.3,295.2 429.2,299.0 432.0,302.6 434.9,306.1 437.7,309.4 440.5,312.6 443.4,315.7 446.2,318.6 449.1,321.3 451.9,323.9 454.8,326.4 457.6,328.7 460.5,331.0 463.4,333.1 466.2,335.1 469.1,337.0 471.9,338.7 474.8,340.4 477.6,342.0 480.4,343.6 483.3,345.0 486.1,346.4 489.0,347.7 491.8,348.9 494.7,350.1 497.5,351.2 500.4,352.2 503.3,353.2 506.1,354.2 509.0,355.1 511.8,355.9 514.7,356.7 517.5,357.5 520.3,358.3 523.2,359.0 526.0,359.7 528.9,360.3 531.7,360.9 534.6,361.5 537.4,362.1 540.3,362.6 543.2,363.1 546.0,363.6 548.9,364.1 551.7,364.6 554.6,365.0 557.4,365.4 560.2,365.8 563.1,366.2 565.9,366.6 568.8,367.0 571.6,367.3 574.5,367.6 577.3,367.9 580.2,368.3 583.1,368.5 585.9,368.8 588.8,369.1 591.6,369.4 594.5,369.6 597.3,369.9 600.1,370.1 603.0,370.3 605.8,370.6 608.7,370.8 611.5,371.0 614.4,371.2 617.2,371.4 620.1,371.6 623.0,371.8 625.8,371.9 628.7,372.1 631.5,372.3 634.4,372.4 637.2,372.6 640.0,372.7 642.9,372.9 645.7,373.0 648.6,373.2 651.4,373.3 654.3,373.4 657.1,373.6 660.0,373.7" fill="none" stroke="#dc2626" stroke-width="2.5"/>
<polyline points="90.0,379.1 92.9,379.1 95.7,379.1 98.6,379.0 101.4,379.0 104.3,379.0 107.1,379.0 110.0,379.0 112.8,378.9 115.6,378.9 118.5,378.9 121.3,378.9 124.2,378.8 127.0,378.8 129.9,378.8 132.8,378.8 135.6,378.7 138.5,378.7 141.3,378.7 144.2,378.6 147.0,378.6 149.9,378.6 152.7,378.5 155.5,378.5 158.4,378.4 161.2,378.4 164.1,378.4 166.9,378.3 169.8,378.3 172.7,378.2 175.5,378.2 178.4,378.1 181.2,378.1 184.1,378.0 186.9,378.0 189.8,377.9 192.6,377.8 195.4,377.8 198.3,377.7 201.1,377.6 204.0,377.5 206.8,377.5 209.7,377.4 212.6,377.3 215.4,377.2 218.3,377.1 221.1,377.0 224.0,376.9 226.8,376.7 229.7,376.6 232.5,376.5 235.3,376.3 238.2,376.2 241.0,376.0 243.9,375.9 246.7,375.7 249.6,375.5 252.4,375.3 255.3,375.1 258.2,374.9 261.0,374.6 263.9,374.3 266.7,374.1 269.6,373.8 272.4,373.4 275.2,373.1 278.1,372.7 280.9,372.3 283.8,371.8 286.6,371.3 289.5,370.8 292.3,370.2 295.2,369.5 298.1,368.8 300.9,368.0 303.8,367.2 306.6,366.2 309.5,365.1 312.3,364.0 315.1,362.6 318.0,361.1 320.8,359.4 323.7,357.5 326.5,355.3 329.4,352.9 332.2,350.0 335.1,346.8 338.0,343.0 340.8,338.7 343.7,333.7 346.5,327.9 349.4,321.3 352.2,313.6 355.0,304.9 357.9,295.2 360.7,284.5 363.6,273.4 366.4,262.4 369.3,252.5 372.1,244.8 375.0,240.6 377.9,240.4 380.7,244.3 383.6,251.7 386.4,261.5 389.3,272.5 392.1,283.6 395.0,294.3 397.8,304.1 400.6,312.9 403.5,320.7 406.3,327.4 409.2,333.3 412.0,338.3 414.9,342.7 417.7,346.5 420.6,349.8 423.5,352.7 426.3,355.2 429.2,357.3 432.0,359.3 434.9,361.0 437.7,362.5 440.5,363.9 443.4,365.1 446.2,366.1 449.1,367.1 451.9,368.0 454.8,368.8 457.6,369.5 460.5,370.1 463.4,370.7 466.2,371.3 469.1,371.8 471.9,372.2 474.8,372.7 477.6,373.0 480.4,373.4 483.3,373.7 486.1,374.0 489.0,374.3 491.8,374.6 494.7,374.8 497.5,375.1 500.4,375.3 503.3,375.5 506.1,375.7 509.0,375.9 511.8,376.0 514.7,376.2 517.5,376.3 520.3,376.5 523.2,376.6 526.0,376.7 528.9,376.9 531.7,377.0 534.6,377.1 537.4,377.2 540.3,377.3 543.2,377.4 546.0,377.4 548.9,377.5 551.7,377.6 554.6,377.7 557.4,377.8 560.2,377.8 563.1,377.9 565.9,377.9 568.8,378.0 571.6,378.1 574.5,378.1 577.3,378.2 580.2,378.2 583.1,378.3 585.9,378.3 588.8,378.4 591.6,378.4 594.5,378.4 597.3,378.5 600.1,378.5 603.0,378.6 605.8,378.6 608.7,378.6 611.5,378.7 614.4,378.7 617.2,378.7 620.1,378.8 623.0,378.8 625.8,378.8 628.7,378.8 631.5,378.9 634.4,378.9 637.2,378.9 640.0,378.9 642.9,379.0 645.7,379.0 648.6,379.0 651.4,379.0 654.3,379.0 657.1,379.1 660.0,379.1" fill="none" stroke="#2563eb" stroke-width="2.5"/>
<polyline points="90.0,379.9 92.9,379.9 95.7,379.9 98.6,379.9 101.4,379.9 104.3,379.9 107.1,379.9 110.0,379.9 112.8,379.9 115.6,379.9 118.5,379.9 121.3,379.9 124.2,379.9 127.0,379.9 129.9,379.9 132.8,379.9 135.6,379.9 138.5,379.9 141.3,379.9 144.2,379.9 147.0,379.9 149.9,379.9 152.7,379.9 155.5,379.9 158.4,379.9 161.2,379.9 164.1,379.9 166.9,379.9 169.8,379.9 172.7,379.9 175.5,379.9 178.4,379.9 181.2,379.9 184.1,379.9 186.9,379.9 189.8,379.8 192.6,379.8 195.4,379.8 198.3,379.8 201.1,379.8 204.0,379.8 206.8,379.8 209.7,379.8 212.6,379.8 215.4,379.8 218.3,379.8 221.1,379.8 224.0,379.8 226.8,379.8 229.7,379.8 232.5,379.7 235.3,379.7 238.2,379.7 241.0,379.7 243.9,379.7 246.7,379.7 249.6,379.7 252.4,379.7 255.3,379.6 258.2,379.6 261.0,379.6 263.9,379.6 266.7,379.6 269.6,379.5 272.4,379.5 275.2,379.5 278.1,379.5 280.9,379.4 283.8,379.4 286.6,379.3 289.5,379.3 292.3,379.3 295.2,379.2 298.1,379.1 300.9,379.1 303.8,379.0 306.6,378.9 309.5,378.8 312.3,378.7 315.1,378.6 318.0,378.5 320.8,378.3 323.7,378.1 326.5,377.9 329.4,377.6 332.2,377.3 335.1,377.0 338.0,376.5 340.8,376.0 343.7,375.3 346.5,374.3 349.4,373.2 352.2,371.6 355.0,369.4 357.9,366.2 360.7,361.5 363.6,354.1 366.4,342.0 369.3,321.2 372.1,287.1 375.0,248.2 377.9,246.0 380.7,283.8 383.6,318.9 386.4,340.7 389.3,353.3 392.1,361.0 395.0,365.9 397.8,369.1 400.6,371.4 403.5,373.0 406.3,374.3 409.2,375.2 412.0,375.9 414.9,376.5 417.7,376.9 420.6,377.3 423.5,377.6 426.3,377.9 429.2,378.1 432.0,378.3 434.9,378.5 437.7,378.6 440.5,378.7 443.4,378.8 446.2,378.9 449.1,379.0 451.9,379.1 454.8,379.1 457.6,379.2 460.5,379.2 463.4,379.3 466.2,379.3 469.1,379.4 471.9,379.4 474.8,379.5 477.6,379.5 480.4,379.5 483.3,379.5 486.1,379.6 489.0,379.6 491.8,379.6 494.7,379.6 497.5,379.6 500.4,379.7 503.3,379.7 506.1,379.7 509.0,379.7 511.8,379.7 514.7,379.7 517.5,379.7 520.3,379.7 523.2,379.8 526.0,379.8 528.9,379.8 531.7,379.8 534.6,379.8 537.4,379.8 540.3,379.8 543.2,379.8 546.0,379.8 548.9,379.8 551.7,379.8 554.6,379.8 557.4,379.8 560.2,379.8 563.1,379.8 565.9,379.9 568.8,379.9 571.6,379.9 574.5,379.9 577.3,379.9 580.2,379.9 583.1,379.9 585.9,379.9 588.8,379.9 591.6,379.9 594.5,379.9 597.3,379.9 600.1,379.9 603.0,379.9 605.8,379.9 608.7,379.9 611.5,379.9 614.4,379.9 617.2,379.9 620.1,379.9 623.0,379.9 625.8,379.9 628.7,379.9 631.5,379.9 634.4,379.9 637.2,379.9 640.0,379.9 642.9,379.9 645.7,379.9 648.6,379.9 651.4,379.9 654.3,379.9 657.1,379.9 660.0,379.9" fill="none" stroke="#16a34a" stroke-width="2.5"/>
<line x1="120" y1="80" x2="145" y2="80" stroke="#dc2626" stroke-width="3"/>
<text x="155" y="84" font-size="12" fill="#1f2937">Nuclear Cluster (R = 0.05 kpc, gamma = 0.8 nHz)</text>
<line x1="120" y1="102" x2="145" y2="102" stroke="#2563eb" stroke-width="3"/>
<text x="155" y="106" font-size="12" fill="#1f2937">Inner Disk (R = 1.5 kpc, gamma = 0.3 nHz)</text>
<line x1="120" y1="124" x2="145" y2="124" stroke="#16a34a" stroke-width="3"/>
<text x="155" y="128" font-size="12" fill="#1f2937">Solar Circle (R = 8.5 kpc, sharp)</text>
</svg>